<?xml version="1.0" standalone="no"?><!DOCTYPE svg PUBLIC "-//W3C//DTD SVG 1.1//EN" "http://www.w3.org/Graphics/SVG/1.1/DTD/svg11.dtd"><svg t="1711610588773" class="icon" viewBox="0 0 1024 1024" version="1.1" xmlns="http://www.w3.org/2000/svg" p-id="9606" xmlns:xlink="http://www.w3.org/1999/xlink" width="24" height="24"><path d="M512 588.8a281.7024 281.7024 0 0 1 272.4864 210.3808 25.6 25.6 0 0 1-49.5104 12.9024 230.5024 230.5024 0 0 0-443.5968-8.2944 25.6 25.6 0 1 1-48.9984-14.848A281.7024 281.7024 0 0 1 512 588.8z" fill="#1F2021" p-id="9607"></path><path d="M512 102.4a409.6 409.6 0 1 1 0 819.2 409.6 409.6 0 0 1 0-819.2z m0 51.2a358.4 358.4 0 1 0 0 716.8 358.4 358.4 0 0 0 0-716.8z" fill="#1F2021" p-id="9608" data-spm-anchor-id="a313x.search_index.0.i13.77113a81sli1Vd" class="selected"></path><path d="M512 281.6a179.2 179.2 0 1 0 0 358.4 179.2 179.2 0 0 0 0-358.4z m0 51.2a128 128 0 1 1 0 256 128 128 0 0 1 0-256z" fill="#1F2021" p-id="9609"></path></svg>