<?xml version="1.0" standalone="no"?><!DOCTYPE svg PUBLIC "-//W3C//DTD SVG 1.1//EN" "http://www.w3.org/Graphics/SVG/1.1/DTD/svg11.dtd"><svg t="1711620477803" class="icon" viewBox="0 0 1109 1024" version="1.1" xmlns="http://www.w3.org/2000/svg" p-id="12750" width="54.150390625" height="50" xmlns:xlink="http://www.w3.org/1999/xlink"><path d="M652.032 196.6336c-7.5008-59.170133-58.001067-105.002667-119.168-105.002667H206.702933c-66.338133 0-120.1664 53.8368-120.1664 120.1664v205.994667c0 66.338133 42.496 108.842667 108.834134 108.842667l-20.8384 99.498666 64.6656-25.668266" fill="#F3F3F5" p-id="12751"></path><path d="M174.532267 640.469333c-3.328 0-6.5024-1.169067-9.002667-3.328a13.824 13.824 0 0 1-4.6592-13.678933l17.493333-83.498667C114.363733 532.795733 72.533333 485.632 72.533333 417.962667V211.797333c0-74.001067 60.16-134.161067 134.1696-134.161066h326.161067c67.498667 0 124.842667 50.500267 133.1712 117.333333 0.9984 7.662933-4.5056 14.830933-12.168533 15.6672-7.662933 0.9984-14.830933-4.5056-15.6672-12.168533-6.664533-52.8384-51.831467-92.672-105.1648-92.672H206.702933c-58.504533 0-106.001067 47.505067-106.001066 106.001066v205.994667c0 58.504533 36.334933 94.839467 94.830933 94.839467 4.164267 0 8.337067 1.834667 11.008 5.1712 2.6624 3.328 3.6608 7.662933 2.824533 11.8272L193.877333 603.477333l40.328534-16c7.168-2.833067 15.505067 0.6656 18.338133 7.8336 2.833067 7.168-0.6656 15.496533-7.8336 18.3296l-64.6656 25.668267c-1.834667 0.836267-3.669333 1.169067-5.504 1.169067z" fill="#CCD0D7" p-id="12752"></path><path d="M409.864533 198.468267h83.498667" fill="#F5FAFE" p-id="12753"></path><path d="M493.3632 212.6336h-83.328c-7.8336 0-14.165333-6.331733-14.165333-14.165333 0-7.8336 6.331733-14.165333 14.165333-14.165334h83.328c7.8336 0 14.165333 6.331733 14.165333 14.165334 0 7.8336-6.493867 14.165333-14.165333 14.165333z" fill="#CCD0D7" p-id="12754"></path><path d="M654.199467 198.468267h201.1648c90.666667 0 164.1728 71.8336 164.1728 162.500266V642.304c0 90.666667-73.506133 164.164267-164.1728 164.164267l6.8352 132.829866-185.4976-133.828266H410.026667c-90.666667 0-165.998933-72.4992-165.998934-163.165867V360.96c0-59.1616 32.170667-110.327467 79.6672-138.666667" fill="#F3F3F5" p-id="12755"></path><path d="M862.208 953.301333a13.312 13.312 0 0 1-8.174933-2.670933l-181.8368-131.157333H409.864533c-99.328 0-179.9936-79.505067-179.9936-177.339734V360.96c0-61.994667 32.3328-118.493867 86.493867-150.826667a14.1056 14.1056 0 0 1 14.506667 24.1664c-45.508267 27.170133-72.669867 74.496-72.669867 126.6688V642.304c0 82.158933 68.164267 149.162667 151.8336 149.162667H676.693333c2.9952 0 5.828267 0.9984 8.1664 2.670933l161.664 116.6592-5.333333-103.5008a14.421333 14.421333 0 0 1 3.84-10.496 13.858133 13.858133 0 0 1 10.154667-4.334933c82.670933 0 150.007467-67.328 150.007466-149.998934V360.968533c0-81.834667-67.328-148.334933-149.998933-148.334933H654.199467c-7.8336 0-14.165333-6.331733-14.165334-14.165333 0-7.8336 6.331733-14.165333 14.165334-14.165334h201.1648c98.338133 0 178.176 79.163733 178.176 176.494934V642.133333c0 93.3376-72.004267 170.001067-163.336534 177.664l5.998934 118.673067c0.3328 5.333333-2.500267 10.496-7.338667 13.166933a14.1056 14.1056 0 0 1-6.656 1.664z" fill="#CCD0D7" p-id="12756"></path><path d="M390.033067 482.304a44.996267 44.996267 0 1 0 90.001066 0 44.996267 44.996267 0 0 0-90.001066 0z" fill="#F3F3F5" p-id="12757"></path><path d="M435.029333 541.303467c-32.494933 0-58.999467-26.504533-58.999466-58.999467 0-32.512 26.504533-59.008 58.999466-59.008 32.512 0 59.008 26.504533 59.008 59.008 0 32.494933-26.504533 58.999467-59.008 58.999467z m0-89.838934a30.8736 30.8736 0 0 0-30.830933 30.839467 30.8736 30.8736 0 0 0 30.830933 30.830933 30.8736 30.8736 0 0 0 30.839467-30.830933 30.8736 30.8736 0 0 0-30.839467-30.839467z" fill="#CCD0D7" p-id="12758"></path><path d="M763.204267 482.304a44.996267 44.996267 0 1 0 89.992533 0 44.996267 44.996267 0 0 0-89.992533 0z" fill="#F3F3F5" p-id="12759"></path><path d="M808.192 541.303467c-32.494933 0-58.990933-26.504533-58.990933-58.999467 0-32.512 26.496-59.008 58.999466-59.008 32.503467 0 58.999467 26.504533 58.999467 59.008 0 32.494933-26.496 58.999467-58.999467 58.999467z m0-89.838934a30.8736 30.8736 0 0 0-30.8224 30.839467 30.8736 30.8736 0 0 0 30.830933 30.830933 30.8736 30.8736 0 0 0 30.830934-30.830933 30.8736 30.8736 0 0 0-30.830934-30.839467zM588.535467 527.300267a8.704 8.704 0 0 1-6.331734-2.670934 8.96 8.96 0 0 1 0-12.663466l71.995734-71.995734a8.96 8.96 0 1 1 12.663466 12.663467l-71.995733 71.995733c-1.834667 1.672533-4.002133 2.670933-6.331733 2.670934z" fill="#CCD0D7" p-id="12760"></path><path d="M660.5312 527.300267a8.704 8.704 0 0 1-6.331733-2.670934l-71.995734-71.995733a8.96 8.96 0 1 1 12.663467-12.663467l71.995733 71.995734c3.498667 3.498667 3.498667 9.1648 0 12.663466-1.826133 1.672533-3.9936 2.670933-6.331733 2.670934z" fill="#CCD0D7" p-id="12761"></path></svg>